#!OML:ASF E:\Mandelcareful walks\Project 1\Capture day 1\Session 1\Subject1.ASF
:FULLY-SPECIFIED
:DEGREES
459
root -26.7148 16.481 -1.30018 195.217 100.249 -172.145
lowerback 6.84866 2.07241 -4.98153
upperback 3.47373 2.53289 -0.840309
thorax -0.417938 1.25309 1.74234
lowerneck -23.8887 9.09688 4.11873
upperneck 31.0296 17.8178 -12.9503
head 17.1182 6.31602 -2.29161
rclavicle -1.08338e-014 1.13307e-014
rhumerus -38.913 18.7199 -87.4834
rradius 64.1216
rwrist -14.5679
rhand -5.56143 -16.4469
rfingers 7.12502
rthumb 20.2539 -45.4109
lclavicle -1.08338e-014 1.13307e-014
lhumerus -39.3331 -10.46 85.6522
lradius 50.0323
lwrist 19.6022
lhand -21.5234 -12.8615
lfingers 7.12502
lthumb 4.869 17.0626
rfemur -14.2692 -3.24555 5.38915
rtibia 37.9762
rfoot -16.1136 -7.04688
rtoes -20.1143
lfemur -16.4354 -14.6847 -19.5996
ltibia 33.4248
lfoot -23.8874 -0.990674
ltoes 1.67333
460
root -26.7537 16.4559 -1.15614 200.153 97.1204 -167.869
lowerback 7.42752 1.60516 -4.64159
upperback 3.43597 1.90321 -0.701407
thorax -0.730285 0.950104 1.72741
lowerneck -24.4417 8.78487 3.54376
upperneck 31.0586 17.5658 -12.8706
head 17.1589 6.12851 -2.20509
rclavicle -2.00773e-014 2.70347e-014
rhumerus -39.492 19.0372 -87.7251
rradius 65.0534
rwrist -15.685
rhand -4.43758 -17.0059
rfingers 7.12502
rthumb 21.3337 -45.8515
lclavicle -2.00773e-014 2.70347e-014
lhumerus -39.3117 -11.3222 87.4191
lradius 51.4857
lwrist 17.3742
lhand -21.5377 -15.2885
lfingers 7.12502
lthumb 4.85513 14.6359
rfemur -13.1054 -1.95606 5.36289
rtibia 35.9289
rfoot -16.0477 -6.60774
rtoes -20.2937
lfemur -18.4233 -15.5991 -18.5038
ltibia 34.7837
lfoot -24.132 -2.75037
ltoes -0.789794
461
root -26.8217 16.4174 -1.02199 206.262 94.7798 -162.321
lowerback 8.26739 1.44518 -3.99574
upperback 3.47024 1.70055 -0.688819
thorax -1.13018 0.864676 1.37586
lowerneck -25.1495 8.33713 2.97442
upperneck 31.1764 17.1171 -12.7565
head 17.257 5.85239 -2.15131
rclavicle -5.66536e-015 1.07344e-014
rhumerus -39.8626 19.1566 -87.8704
rradius 65.8923
rwrist -16.6297
rhand -4.59418 -17.7361
rfingers 7.12502
rthumb 21.1833 -46.5987
lclavicle -5.66536e-015 1.07344e-014
lhumerus -38.8585 -12.2795 88.875
lradius 52.3243
lwrist 15.7681
lhand -22.3019 -16.738
lfingers 7.12502
lthumb 4.11725 13.202
rfemur -12.2652 -1.78713 5.52882
rtibia 34.7538
rfoot -16.4016 -5.49674
rtoes -21.4639
lfemur -20.645 -15.7323 -17.4045
ltibia 36.6023
lfoot -24.4555 -4.40846
ltoes -3.29738
462
root -26.8947 16.3729 -0.887489 224.053 92.5005 -145.164
lowerback 9.01992 1.28035 -3.27054
upperback 3.44843 1.51139 -0.666233
thorax -1.54204 0.783917 0.993718
lowerneck -25.7579 7.824 2.34661
upperneck 31.487 16.6147 -12.5248
head 17.4065 5.56281 -2.05868
rclavicle -7.35503e-015 -9.64106e-015
rhumerus -40.3812 19.1129 -87.9688
rradius 66.4558
rwrist -16.8853
rhand -6.01623 -17.2031
rfingers 7.12502
rthumb 19.8168 -46.2129
lclavicle -7.35503e-015 -9.64106e-015
lhumerus -38.3718 -13.0154 90.1528
lradius 52.6801
lwrist 14.5585
lhand -23.919 -17.5177
lfingers 7.12502
lthumb 2.55561 12.4467
rfemur -11.6273 -2.72402 5.94672
rtibia 34.2899
rfoot -17.3342 -4.20868
rtoes -19.9384
lfemur -23.2539 -15.6435 -16.3107
ltibia 38.7829
lfoot -24.6166 -6.22285
ltoes -4.89998
463
root -26.9569 16.3143 -0.747362 300.219 91.6665 -68.9354
lowerback 10.2702 1.1747 -2.52038
upperback 3.62796 1.41521 -0.721996
thorax -2.02133 0.751891 0.501002
lowerneck -25.9691 7.30504 1.90292
upperneck 31.7027 15.995 -12.2836
head 17.4203 5.27955 -2.02961
rclavicle 6.03808e-015 -9.0944e-015
rhumerus -40.6674 18.5828 -87.9504
rradius 66.4809
rwrist -16.8991
rhand -6.98654 -16.3595
rfingers 7.12502
rthumb 18.8838 -45.4629
lclavicle 6.03808e-015 -9.0944e-015
lhumerus -37.791 -13.6441 91.1184
lradius 52.5701
lwrist 14.1267
lhand -25.5895 -17.7181
lfingers 7.12502
lthumb 0.94217 12.2596
rfemur -10.5055 -4.1776 6.43762
rtibia 34.0815
rfoot -18.8312 -3.68029
rtoes -18.237
lfemur -25.2825 -15.2607 -15.6542
ltibia 41.2901
lfoot -24.8157 -8.16654
ltoes -7.25248
